<svg width="20" height="20" viewBox="0 0 20 20" fill="none" xmlns="http://www.w3.org/2000/svg">
<path d="M17.1129 10.6766H15.5662C15.7238 11.1082 15.8099 11.574 15.8099 12.0595V17.9053C15.8099 18.1077 15.7747 18.302 15.7106 18.4827H18.2677C19.2229 18.4827 19.9999 17.7056 19.9999 16.7504V13.5637C20 11.9717 18.7048 10.6766 17.1129 10.6766Z" fill="#1ABC9C"/>
<path d="M4.19005 12.0596C4.19005 11.5741 4.27618 11.1083 4.43384 10.6766H2.88712C1.29516 10.6766 0 11.9718 0 13.5637V16.7505C0 17.7057 0.777072 18.4828 1.73227 18.4828H4.28938C4.22528 18.302 4.19005 18.1077 4.19005 17.9053V12.0596Z" fill="#1ABC9C"/>
<path d="M11.7681 9.17249H8.23208C6.64013 9.17249 5.34497 10.4676 5.34497 12.0596V17.9053C5.34497 18.2242 5.60349 18.4827 5.92239 18.4827H14.0778C14.3967 18.4827 14.6552 18.2242 14.6552 17.9053V12.0596C14.6552 10.4676 13.3601 9.17249 11.7681 9.17249Z" fill="#725CD0"/>
<path d="M9.99994 1.51715C8.08541 1.51715 6.52783 3.07473 6.52783 4.98931C6.52783 6.28794 7.24459 7.42212 8.30311 8.01759C8.80518 8.30002 9.384 8.46142 9.99994 8.46142C10.6159 8.46142 11.1947 8.30002 11.6968 8.01759C12.7553 7.42212 13.472 6.2879 13.472 4.98931C13.472 3.07477 11.9145 1.51715 9.99994 1.51715Z" fill="#725CD0"/>
<path d="M3.90308 4.75348C2.47124 4.75348 1.3064 5.91832 1.3064 7.35016C1.3064 8.782 2.47124 9.94685 3.90308 9.94685C4.26628 9.94685 4.61214 9.87161 4.92633 9.73638C5.46953 9.50251 5.91742 9.08853 6.19457 8.56997C6.3891 8.20602 6.49977 7.79083 6.49977 7.35016C6.49977 5.91836 5.33492 4.75348 3.90308 4.75348Z" fill="#1ABC9C"/>
<path d="M16.0969 4.75348C14.6651 4.75348 13.5002 5.91832 13.5002 7.35016C13.5002 7.79087 13.6109 8.20606 13.8054 8.56997C14.0826 9.08857 14.5305 9.50255 15.0737 9.73638C15.3879 9.87161 15.7337 9.94685 16.0969 9.94685C17.5288 9.94685 18.6936 8.782 18.6936 7.35016C18.6936 5.91832 17.5288 4.75348 16.0969 4.75348Z" fill="#1ABC9C"/>
</svg>
