<svg width="18" height="15" viewBox="0 0 18 15" fill="none" xmlns="http://www.w3.org/2000/svg">
<path d="M16.8316 15H1.16876C0.523213 15 0 14.4771 0 13.832C0 13.1869 0.523213 12.6641 1.16876 12.6641H16.8312C17.4768 12.6641 18 13.1869 18 13.832C18 14.4771 17.4772 15 16.8316 15Z" fill="#333333"/>
<path d="M16.8316 8.66797H1.16876C0.523213 8.66797 0 8.14511 0 7.5C0 6.85489 0.523213 6.33203 1.16876 6.33203H16.8312C17.4768 6.33203 18 6.85489 18 7.5C18.0004 8.14511 17.4772 8.66797 16.8316 8.66797Z" fill="#333333"/>
<path d="M16.8316 2.33594H1.16876C0.523213 2.33594 0 1.81308 0 1.16797C0 0.522862 0.523213 0 1.16876 0H16.8312C17.4768 0 18 0.522862 18 1.16797C18 1.81308 17.4772 2.33594 16.8316 2.33594Z" fill="#333333"/>
</svg>
