<svg width="20" height="20" viewBox="0 0 20 20" fill="none" xmlns="http://www.w3.org/2000/svg">
<g clip-path="url(#clip0)">
<path d="M12.2825 4.34788C12.2825 6.74911 10.3359 8.6956 7.93463 8.6956C5.5334 8.6956 3.58691 6.74911 3.58691 4.34788C3.58691 1.94665 5.5334 0 7.93463 0C10.3359 0 12.2825 1.94665 12.2825 4.34788Z" fill="#725CD0"/>
<path d="M10.1384 18.087C9.68546 17.3027 9.7759 16.3365 10.315 15.6522C9.7759 14.9679 9.68546 14.0027 10.1384 13.2174L10.8421 12C11.229 11.3296 11.9507 10.9131 12.7255 10.9131C12.8315 10.9131 12.9358 10.9209 13.0393 10.9357C13.0681 10.8644 13.1046 10.7974 13.1403 10.7295C12.6707 10.5444 12.1638 10.4348 11.6307 10.4348H4.23943C1.96191 10.4348 0.108887 12.2878 0.108887 14.5652V17.6087C0.108887 17.9687 0.401059 18.2609 0.761061 18.2609H10.2384L10.1384 18.087Z" fill="#725CD0"/>
<path d="M18.9809 16.06C18.9982 15.9253 19.0216 15.7914 19.0216 15.6522C19.0216 15.5123 18.9973 15.3791 18.9809 15.2444L19.7642 14.6513C19.939 14.5192 19.9878 14.2775 19.8782 14.0871L19.1748 12.8696C19.0651 12.68 18.8312 12.6009 18.6294 12.6861L17.7278 13.0661C17.5077 12.8983 17.2738 12.7505 17.0156 12.6426L16.8955 11.6852C16.8678 11.4678 16.6834 11.3043 16.4643 11.3043H15.0583C14.839 11.3043 14.6538 11.4678 14.6269 11.6852L14.5069 12.6426C14.2486 12.7505 14.0139 12.8991 13.7947 13.0661L12.893 12.6861C12.6913 12.6009 12.4574 12.6792 12.3478 12.8696L11.6442 14.0871C11.5347 14.2765 11.5834 14.5182 11.7582 14.6513L12.5416 15.2444C12.5242 15.3791 12.5008 15.5131 12.5008 15.6522C12.5008 15.7922 12.5252 15.9253 12.5416 16.06L11.7582 16.6531C11.5834 16.7852 11.5347 17.0269 11.6442 17.2174L12.3478 18.4357C12.4574 18.6252 12.6913 18.7044 12.893 18.6192L13.7947 18.2383C14.0147 18.4061 14.2486 18.5539 14.5069 18.6618L14.6269 19.6193C14.6538 19.8366 14.8382 20.0001 15.0573 20.0001H16.4634C16.6825 20.0001 16.8678 19.8366 16.8947 19.6193L17.0148 18.6618C17.273 18.5539 17.5077 18.4053 17.7268 18.2383L18.6287 18.6184C18.8304 18.7036 19.0643 18.6252 19.1738 18.4348L19.8773 17.2166C19.9868 17.0269 19.9383 16.7852 19.7634 16.6523L18.9809 16.06ZM15.7607 17.3914C14.8 17.3914 14.0217 16.6131 14.0217 15.6522C14.0217 14.6913 14.8 13.913 15.7607 13.913C16.7216 13.913 17.4999 14.6913 17.4999 15.6522C17.4999 16.6131 16.7216 17.3914 15.7607 17.3914Z" fill="#1ABC9C"/>
</g>
<defs>
<clipPath id="clip0">
<rect width="20" height="20" fill="white"/>
</clipPath>
</defs>
</svg>