<svg width="22" height="22" viewBox="0 0 22 22" fill="none" xmlns="http://www.w3.org/2000/svg">
<g clip-path="url(#clip0)">
<path d="M20.5481 7.0134L18.537 3.53555C18.3151 3.12671 17.811 2.94155 17.349 3.10746L15.0766 4.02046C14.6439 3.70971 14.1902 3.44571 13.7217 3.23396L13.3761 0.825C13.3184 0.35475 12.9096 0 12.4274 0H8.39401C7.91186 0 7.50391 0.35475 7.44616 0.81675L7.09966 3.2349C6.64501 3.44205 6.19951 3.7015 5.74756 4.0223L3.4688 3.1066C3.0224 2.93335 2.51455 3.1167 2.28905 3.52645L0.275106 7.01065C0.0331056 7.4213 0.133008 7.9539 0.508856 8.2509L2.43386 9.75605C2.40451 10.0467 2.38986 10.3006 2.38986 10.5417C2.38986 10.7828 2.40451 11.0367 2.43476 11.3263L0.507008 12.8333C0.13941 13.1239 0.0386055 13.6391 0.272356 14.0699L2.28351 17.5487C2.50716 17.9566 3.00951 18.1436 3.47241 17.9758L5.74481 17.0628C6.17746 17.3736 6.63122 17.6376 7.09966 17.8493L7.44526 20.2592C7.50391 20.7286 7.91276 21.0833 8.39401 21.0833H11.5529C11.7243 21.0833 11.881 20.988 11.958 20.8395C12.0369 20.6882 12.0249 20.5058 11.9278 20.3656C11.2256 19.3609 10.8553 18.183 10.8553 16.9611C10.8553 16.3909 10.9387 15.8198 11.1037 15.2634C11.1458 15.1204 11.1165 14.9655 11.0239 14.8491C10.9313 14.7327 10.7893 14.6703 10.6398 14.6749C10.5903 14.6777 10.5417 14.6841 10.4171 14.6997C8.13731 14.6997 6.28291 12.8453 6.28291 10.5655C6.28291 8.28485 8.13731 6.4304 10.4171 6.4304C12.6968 6.4304 14.5512 8.2848 14.543 10.6407C14.5366 10.6892 14.5301 10.7378 14.5274 10.7873C14.52 10.9358 14.5851 11.0788 14.7015 11.1714C14.8189 11.264 14.9738 11.2915 15.1159 11.2512C16.0078 10.9853 16.8869 10.9212 17.8824 11.1027C18.0043 11.1247 18.1381 11.0697 18.2408 10.9936C18.3434 10.9175 18.4104 10.7763 18.4241 10.6498C18.426 10.6333 18.4305 10.5591 18.4305 10.5426C18.4305 10.2575 18.4104 9.98796 18.3865 9.75696L20.3135 8.25C20.6811 7.96035 20.7828 7.44515 20.5481 7.0134ZM17.6221 9.19235C17.4956 9.29135 17.4296 9.45085 17.4498 9.61035C17.469 9.76435 17.4892 9.9367 17.502 10.12C16.8017 10.0458 16.1307 10.0843 15.4597 10.2199C15.2828 7.59365 13.0901 5.511 10.4198 5.511C7.63497 5.511 5.36897 7.777 5.36897 10.5627C5.36897 13.2339 7.45162 15.4266 10.0779 15.6026C9.98712 16.0508 9.94127 16.5046 9.94127 16.9583C9.94127 18.0831 10.2135 19.1757 10.7333 20.1593L8.35452 20.1373L7.97137 17.4653C7.94752 17.3039 7.84122 17.1673 7.69087 17.1059C7.13262 16.8777 6.59547 16.5651 6.09222 16.1782C6.01062 16.115 5.91162 16.0829 5.81262 16.0829C5.75487 16.0829 5.69712 16.0939 5.64212 16.1159L3.08371 17.0986L1.07347 13.5547L3.20106 11.891C3.32756 11.792 3.39356 11.6325 3.37341 11.473C3.32756 11.1081 3.30651 10.8121 3.30651 10.5416C3.30651 10.2712 3.32761 9.97511 3.37341 9.61026C3.39356 9.45076 3.32756 9.29126 3.20106 9.19226L1.06706 7.47351L3.13047 3.95901L5.64122 4.96736C5.79062 5.02696 5.96021 5.00496 6.08762 4.90871C6.62846 4.50261 7.15277 4.1983 7.68996 3.9783C7.84031 3.91596 7.94756 3.7803 7.97047 3.61896L8.39396 0.916609L12.4667 0.946859L12.8499 3.61896C12.8737 3.7803 12.98 3.91686 13.1304 3.9783C13.6877 4.20655 14.2258 4.51821 14.729 4.90596C14.8564 5.00496 15.0279 5.02786 15.1791 4.96736L17.7375 3.98561L19.7496 7.52851L17.6221 9.19235Z" fill="white"/>
<path d="M21.3842 15.4724C21.0404 14.0974 19.4968 11.9167 16.8146 11.9167C14.0343 11.9167 11.7729 14.1781 11.7729 16.9583C11.7729 19.7386 14.0344 22 16.8146 22C17.0685 22 17.273 21.7947 17.273 21.5417C17.273 21.2887 17.0676 21.0833 16.8146 21.0833C14.5404 21.0833 12.6896 19.2326 12.6896 16.9583C12.6896 14.6841 14.5404 12.8333 16.8146 12.8333C19.0559 12.8333 20.2622 14.7611 20.495 15.6942C20.5555 15.9399 20.8058 16.0893 21.0505 16.0279C21.2962 15.9665 21.4456 15.7181 21.3842 15.4724Z" fill="white"/>
<path d="M21.3978 12.8333C21.1448 12.8333 20.9395 13.0387 20.9395 13.2917V15.5833H18.6478C18.3948 15.5833 18.1895 15.7887 18.1895 16.0417C18.1895 16.2947 18.3948 16.5 18.6478 16.5H21.3978C21.6517 16.5 21.8561 16.2947 21.8561 16.0417V13.2917C21.8561 13.0386 21.6508 12.8333 21.3978 12.8333Z" fill="white"/>
</g>
<defs>
<clipPath id="clip0">
<rect width="22" height="22" fill="white"/>
</clipPath>
</defs>
</svg>
