<svg width="20" height="20" viewBox="0 0 20 20" fill="none" xmlns="http://www.w3.org/2000/svg">
<path d="M10.0001 12.266C11.2516 12.266 12.2661 11.2515 12.2661 9.99999C12.2661 8.74852 11.2516 7.73401 10.0001 7.73401C8.74864 7.73401 7.73413 8.74852 7.73413 9.99999C7.73413 11.2515 8.74864 12.266 10.0001 12.266Z" fill="#1ABC9C"/>
<path d="M10 0C4.47715 0 0 4.47715 0 10C0 15.5229 4.47715 20 10 20C15.5229 20 20 15.5229 20 10C20 4.47715 15.5229 0 10 0ZM11.3364 17.0346V13.1674C10.9254 13.3415 10.4737 13.4378 10 13.4378C9.52625 13.4378 9.07457 13.3415 8.66356 13.1674V17.0346C5.3782 16.4142 2.88645 13.5498 2.84156 10.0948L6.64832 10.766C6.59203 10.5196 6.56219 10.2632 6.56219 10C6.56219 9.31262 6.76512 8.6718 7.11398 8.13402L3.30371 7.46219C4.32805 4.76078 6.93953 2.84031 10 2.84031C13.0605 2.84031 15.672 4.76082 16.6963 7.46223L12.8861 8.13406C13.235 8.6718 13.4379 9.31262 13.4379 9.99996C13.4379 10.2632 13.408 10.5196 13.3517 10.7661L17.1585 10.0948C17.1136 13.5499 14.6218 16.4143 11.3364 17.0346Z" fill="#725CD0"/>
</svg>