<svg width="8" height="14" viewBox="0 0 8 14" fill="none" xmlns="http://www.w3.org/2000/svg">
<g clip-path="url(#clip0)">
<path d="M3.93748 12.307C3.79634 12.307 3.65522 12.2531 3.54762 12.1455L0.161549 8.75943C-0.0538496 8.54403 -0.0538496 8.1948 0.161549 7.97949C0.37686 7.76418 0.726022 7.76418 0.941438 7.97949L3.93748 10.9757L6.93354 7.9796C7.14893 7.76429 7.49806 7.76429 7.71335 7.9796C7.92886 8.19491 7.92886 8.54414 7.71335 8.75954L4.32734 12.1456C4.21968 12.2532 4.07856 12.307 3.93748 12.307Z" fill="#333333"/>
</g>
<g clip-path="url(#clip1)">
<path d="M3.93748 1.69302C3.79634 1.69302 3.65522 1.74691 3.54762 1.85446L0.161549 5.24057C-0.0538496 5.45597 -0.0538496 5.8052 0.161549 6.02051C0.37686 6.23582 0.726022 6.23582 0.941438 6.02051L3.93748 3.02429L6.93354 6.0204C7.14893 6.23571 7.49806 6.23571 7.71335 6.0204C7.92886 5.80509 7.92886 5.45586 7.71335 5.24046L4.32734 1.85435C4.21968 1.74679 4.07856 1.69302 3.93748 1.69302Z" fill="#333333"/>
</g>
<defs>
<clipPath id="clip0">
<rect width="7.875" height="7.875" fill="white" transform="translate(0 6.125)"/>
</clipPath>
<clipPath id="clip1">
<rect width="7.875" height="7.875" fill="white" transform="matrix(1 0 0 -1 0 7.875)"/>
</clipPath>
</defs>
</svg>
